# xmcd
#
# Track frame offsets: 
#        150
#        15845
#        32327
#        54752
#        71060
#        87685
#        106857
#        119357
#        137662
#        154565
#        170602
#        186282
#        202157
#
# Disc length: 2922 seconds
#
# Revision: 1
# Processed by: cddbd v1.5.2PL0 Copyright (c) Steve Scherf et al.
# Submitted via: ExactAudioCopy v0.99pb4
#
DISCID=a70b680d
DTITLE=Big Mama and Victor Uris - El Blues De L'ombra Blava
DYEAR=1996
DGENRE=Blues
TTITLE0=No Way Out
TTITLE1=I'm Happy
TTITLE2=El Blues De L'ombra Blava
TTITLE3=Won't You Come, Bill Baley?
TTITLE4=Un Gram Pot Que L'home Est Torni Sort
TTITLE5=El Blues De La Resaca
TTITLE6=Worry, Worry Worry [Brownie McGhee]
TTITLE7=Qué Puc Fer Per A Tú
TTITLE8=No M'estimes Blues
TTITLE9=Please, Don't Talk About Me When I'm Gone [Clare - Stept]
TTITLE10=Sempre Tinc El Blues
TTITLE11=Soñar Que No Despierto
TTITLE12=Wasted Life Blues [Bessie Smith]
EXTD=YEAR: 1996
EXTT0=
EXTT1=
EXTT2=
EXTT3=
EXTT4=
EXTT5=
EXTT6=
EXTT7=
EXTT8=
EXTT9=
EXTT10=
EXTT11=
EXTT12=
PLAYORDER=
